<?xml version="1.0" encoding="UTF-8" standalone="no"?>
<!-- Created with Inkscape (http://www.inkscape.org/) -->

<svg
   xmlns:dc="http://purl.org/dc/elements/1.1/"
   xmlns:cc="http://creativecommons.org/ns#"
   xmlns:rdf="http://www.w3.org/1999/02/22-rdf-syntax-ns#"
   xmlns:svg="http://www.w3.org/2000/svg"
   xmlns="http://www.w3.org/2000/svg"
   xmlns:sodipodi="http://sodipodi.sourceforge.net/DTD/sodipodi-0.dtd"
   xmlns:inkscape="http://www.inkscape.org/namespaces/inkscape"
   width="210mm"
   height="297mm"
   id="svg2"
   version="1.1"
   inkscape:version="0.48.4 r9939"
   sodipodi:docname="lrdq_logo.svg">
  <defs
     id="defs4" />
  <sodipodi:namedview
     id="base"
     pagecolor="#ffffff"
     bordercolor="#666666"
     borderopacity="1.0"
     inkscape:pageopacity="0.0"
     inkscape:pageshadow="2"
     inkscape:zoom="3.959798"
     inkscape:cx="166.76254"
     inkscape:cy="2051.06"
     inkscape:document-units="px"
     inkscape:current-layer="layer1"
     showgrid="false"
     inkscape:window-width="1280"
     inkscape:window-height="750"
     inkscape:window-x="-8"
     inkscape:window-y="-8"
     inkscape:window-maximized="1" />
  <metadata
     id="metadata7">
    <rdf:RDF>
      <cc:Work
         rdf:about="">
        <dc:format>image/svg+xml</dc:format>
        <dc:type
           rdf:resource="http://purl.org/dc/dcmitype/StillImage" />
        <dc:title></dc:title>
      </cc:Work>
    </rdf:RDF>
  </metadata>
  <g
     inkscape:label="Calque 1"
     inkscape:groupmode="layer"
     id="layer1">
    <flowRoot
       xml:space="preserve"
       id="flowRoot2985"
       style="font-size:40px;font-style:normal;font-weight:normal;line-height:125%;letter-spacing:0px;word-spacing:0px;fill:#000000;fill-opacity:1;stroke:none;font-family:Sans"><flowRegion
         id="flowRegion2987"><rect
           id="rect2989"
           width="108.57143"
           height="248.57143"
           x="100"
           y="166.6479" /></flowRegion><flowPara
         id="flowPara2991" /></flowRoot>    <flowRoot
       xml:space="preserve"
       id="flowRoot2993"
       style="fill:#ff8080;stroke:none;stroke-opacity:1;stroke-width:1px;stroke-linejoin:miter;stroke-linecap:butt;fill-opacity:1;font-family:Sans;font-style:normal;font-weight:normal;font-size:40px;line-height:125%;letter-spacing:0px;word-spacing:0px"><flowRegion
         id="flowRegion2995"><rect
           id="rect2997"
           width="60"
           height="82.85714"
           x="85.714287"
           y="146.6479"
           style="fill:#ff8080" /></flowRegion><flowPara
         id="flowPara2999"></flowPara></flowRoot>    <flowRoot
       style="fill:#ff8080;stroke:none;stroke-opacity:1;stroke-width:1px;stroke-linejoin:miter;stroke-linecap:butt;fill-opacity:1;font-family:Sans;font-style:normal;font-weight:normal;font-size:40px;line-height:125%;letter-spacing:0px;word-spacing:0px"
       id="flowRoot3001"
       xml:space="preserve"><flowRegion
         id="flowRegion3003"><rect
           style="fill:#ff8080"
           y="146.6479"
           x="85.714287"
           height="82.85714"
           width="60"
           id="rect3005" /></flowRegion><flowPara
         id="flowPara3007"></flowPara></flowRoot>    <text
       xml:space="preserve"
       style="font-size:40px;font-style:normal;font-weight:normal;line-height:125%;letter-spacing:0px;word-spacing:0px;fill:#000000;fill-opacity:1;stroke:none;font-family:Sans"
       x="308.57144"
       y="520.93359"
       id="text3009"
       sodipodi:linespacing="125%"><tspan
         sodipodi:role="line"
         id="tspan3011"></tspan></text>
    <flowRoot
       xml:space="preserve"
       id="flowRoot3013"
       style="fill:black;stroke:none;stroke-opacity:1;stroke-width:1px;stroke-linejoin:miter;stroke-linecap:butt;fill-opacity:1;font-family:Sans;font-style:normal;font-weight:normal;font-size:40px;line-height:125%;letter-spacing:0px;word-spacing:0px"><flowRegion
         id="flowRegion3015"><rect
           id="rect3017"
           width="108.57143"
           height="177.14285"
           x="62.857143"
           y="100.93361" /></flowRegion><flowPara
         id="flowPara3019"></flowPara></flowRoot>    <path
       sodipodi:type="spiral"
       style="fill:none;stroke:#000000;stroke-width:1px;stroke-linecap:butt;stroke-linejoin:miter;stroke-opacity:1"
       id="path3023"
       sodipodi:cx="500"
       sodipodi:cy="440.93362"
       sodipodi:expansion="1"
       sodipodi:revolution="3.0441883"
       sodipodi:radius="11.780302"
       sodipodi:argument="-17.801382"
       sodipodi:t0="0"
       d="m 500,440.93362 c 0.29054,0.50438 -0.53654,0.64049 -0.8383,0.48291 -0.81775,-0.42705 -0.65791,-1.57863 -0.12751,-2.15951 0.94877,-1.03906 2.60747,-0.7445 3.48071,0.2279 1.28153,1.42703 0.83773,3.65172 -0.58329,4.80191 -1.89399,1.53302 -4.70165,0.934 -6.12312,-0.93869 -1.78876,-2.3566 -1.03192,-5.75433 1.29409,-7.44432 2.81712,-2.04681 6.80857,-1.1308 8.76553,1.64948 2.30621,3.27647 1.23027,7.86378 -2.00489,10.08673 -3.73511,2.56649 -8.91963,1.33015 -11.40793,-2.36028 -2.82737,-4.1933 -1.4303,-9.97594 2.71568,-12.72914 4.65117,-3.08867 11.03258,-1.53066 14.05034,3.07108 3.35029,5.10881 1.63117,12.08948 -3.42648,15.37155 -0.90934,0.5901 -1.90123,1.05151 -2.93768,1.36895" />
    <flowRoot
       xml:space="preserve"
       id="flowRoot3029"
       style="fill:black;stroke:none;stroke-opacity:1;stroke-width:1px;stroke-linejoin:miter;stroke-linecap:butt;fill-opacity:1;font-family:Sans;font-style:normal;font-weight:normal;font-size:40px;line-height:125%;letter-spacing:0px;word-spacing:0px"><flowRegion
         id="flowRegion3031"><rect
           id="rect3033"
           width="180"
           height="142.85715"
           x="71.428574"
           y="129.50504" /></flowRegion><flowPara
         id="flowPara3035"></flowPara></flowRoot>    <path
       style="fill:#ff5555"
       id="path3039"
       d="m 159.88859,173.03637 c 0.32605,0.77766 0.73742,1.51492 1.04306,2.30084 0.29481,0.78137 0.59298,1.56661 0.93983,2.32665 0.28761,0.69928 0.43422,1.44911 0.60963,2.18334 0.25974,0.87677 0.41073,1.77628 0.57189,2.67427 0.13934,0.77932 0.26794,1.56148 0.38021,2.34532 0.11947,0.99276 0.14084,1.9947 0.16125,2.99353 0.0346,0.85346 0.0467,1.69456 -0.11458,2.535 -0.21907,1.01316 -0.29419,2.04822 -0.41827,3.07539 -0.12984,0.97537 -0.13109,1.96097 -0.28947,2.93221 -0.17756,1.06942 -0.52484,2.09722 -0.9188,3.10359 -0.29449,0.87884 -0.70666,1.68216 -1.2868,2.40255 -0.43769,0.54987 -0.95627,1.0305 -1.47485,1.50285 -0.58425,0.52292 -1.23371,0.95903 -1.90225,1.36466 -1.58988,0.72719 -3.22216,2.24891 -5.08497,2.56859 -0.86727,0.17661 -1.54376,-0.35776 -2.22748,-0.79904 -0.75343,-0.48504 -1.1491,-1.22618 -1.42926,-2.04979 -0.32012,-1.09849 -0.19209,-1.76474 0.39094,-2.73902 0.12883,-0.14677 0.24483,-0.30588 0.3865,-0.44029 0.27014,-0.25631 0.78205,-0.61947 1.10127,-0.80286 1.99339,-1.14516 3.08724,-1.9956 5.0142,-2.52 1.08204,-0.24923 2.17688,-0.35527 3.27549,-0.18626 1.063,0.22329 1.96905,0.8429 2.84002,1.46284 0.72107,0.56908 1.41041,1.23205 1.91052,2.00793 0.41105,0.56936 0.69742,1.2114 1.08249,1.79674 0.29685,0.53951 0.70863,0.96583 1.17965,1.35249 0.84526,0.69887 1.89058,1.0756 2.92546,1.3945 1.2361,0.34772 2.52057,0.41743 3.79649,0.46214 1.17971,0.0757 2.32221,-0.22668 3.43245,-0.58747 0.47792,-0.17797 0.40721,-0.1391 0.85693,-0.3545 0.13493,-0.0646 0.53085,-0.27578 0.40154,-0.20053 -0.32467,0.18893 -8.3429,4.75691 0.69719,-0.41562 0.94924,-0.54314 -1.8953,1.0918 -2.84295,1.63771 7.73335,-4.46282 2.08324,-1.19673 0.72249,-0.42999 -0.12613,0.0711 0.24406,-0.15585 0.36725,-0.23193 0.37299,-0.23036 0.74993,-0.45273 1.11982,-0.6882 0.44508,-0.30527 0.22754,-0.14986 0.65295,-0.46577 0,0 3.44267,-1.37371 3.44267,-1.37371 l 0,0 c -0.42198,0.33504 -0.20594,0.17016 -0.64845,0.49421 -1.94866,1.30836 -8.93198,5.21325 -2.19358,1.36558 -10.11798,5.8338 -0.0948,0.0583 -0.68028,0.38354 -1.61249,0.8959 -3.05846,1.98835 -4.81104,2.53404 -1.13401,0.33285 -2.30024,0.55678 -3.48879,0.47323 -1.29464,-0.0607 -2.59593,-0.16842 -3.84228,-0.54843 -1.08237,-0.35034 -2.16194,-0.75539 -3.05944,-1.47595 -0.49685,-0.41232 -0.92836,-0.87469 -1.24011,-1.44656 -0.38421,-0.58823 -0.66342,-1.23423 -1.07283,-1.80682 -0.4701,-0.73861 -1.12394,-1.36571 -1.80996,-1.90249 -0.83741,-0.58764 -1.7156,-1.15051 -2.74651,-1.30854 -1.06408,-0.10369 -2.12783,0.0153 -3.161,0.29092 -1.50227,0.48644 -2.79205,1.38676 1.27895,-1.03336 0.19566,-0.11631 -0.39328,0.22956 -0.58459,0.35288 -0.17879,0.11524 -0.35771,0.23136 -0.52521,0.36248 -0.14525,0.11369 -0.27407,0.24696 -0.41111,0.37043 -0.62837,0.88838 -0.79065,1.35979 -0.5137,2.43231 0.23946,0.75968 0.60829,1.39933 1.3025,1.83229 0.68394,0.44262 1.22399,0.78059 2.06903,0.551 1.41444,-0.39064 4.15914,-2.17994 -1.33058,1.0176 0.66021,-0.40304 1.33446,-0.78597 1.91553,-1.30371 0.53907,-0.44082 1.04801,-0.93891 1.51049,-1.45491 0.60646,-0.68217 1.08229,-1.42906 1.3607,-2.30823 0.41274,-0.97321 0.75282,-1.98268 0.93136,-3.02717 0.20423,-0.96125 0.17778,-1.94724 0.31634,-2.91909 0.12584,-1.03051 0.19226,-2.06845 0.38666,-3.08923 0.0522,-0.26414 0.13242,-0.52414 0.15775,-0.79219 0.0524,-0.55419 -0.0408,-1.12307 2.8e-4,-1.67836 -0.0121,-0.98333 -0.0249,-1.96935 -0.15087,-2.94618 -0.11292,-0.7791 -0.25527,-1.55336 -0.37705,-2.331 -0.16643,-0.89003 -0.26354,-1.79489 -0.55242,-2.65901 -0.18183,-0.70983 -0.34506,-1.42944 -0.59874,-2.11637 -0.33009,-0.77516 -0.62721,-1.56634 -0.93235,-2.3517 -0.29254,-0.77608 -0.68666,-1.50994 -1.06695,-2.2456 0,0 3.25574,-1.85377 3.25574,-1.85377 z"
       inkscape:connector-curvature="0" />
    <path
       style="fill:#000080"
       id="path3043"
       d="m 164.74994,172.43257 c 1.4801,0.0136 2.9614,-0.0917 4.44026,-0.15999 0.60722,-0.007 1.21466,-0.0858 1.8218,-0.0262 0.4521,0.0444 0.90409,0.15875 1.35123,0.23728 0.86488,0.27477 1.74012,0.53855 2.5602,0.93078 0.65809,0.28678 1.25261,0.68748 1.79485,1.15422 0.5885,0.50838 1.12976,1.0788 1.63006,1.67428 0.40701,0.53252 0.69242,1.13969 0.98459,1.73907 0.27745,0.63137 0.37321,1.30797 0.42321,1.98904 0.10976,0.77644 -0.10098,1.47817 -0.36358,2.19592 -0.15326,0.51962 -0.39183,1.00417 -0.63743,1.48457 -0.29198,0.57223 -0.64967,1.11062 -1.02566,1.63076 -0.32564,0.45766 -0.80516,0.74232 -1.24721,1.0702 -2.0719,1.25191 -6.96255,4.00524 -0.85234,0.50541 0.21181,-0.12132 -0.41399,0.259 -0.62574,0.38044 -1.15933,0.66488 -2.32214,1.32369 -3.48321,1.98554 -0.50414,0.23563 -0.95563,0.55668 -1.49472,0.70841 -0.54176,0.0778 -1.08053,0.0986 -1.6198,0.19828 -1.25238,0.3281 -3.48589,1.80756 2.85,-1.90203 0.0392,-0.0229 0.0654,0.0635 0.10252,0.0896 0.0998,0.0699 0.20951,0.1246 0.31212,0.19032 0.45746,0.34965 0.85215,0.76939 1.28004,1.15233 0.43571,0.27913 0.84413,0.56548 1.23252,0.90577 0.42396,0.43848 0.88473,0.83695 1.31424,1.27262 0.5678,0.65926 1.15445,1.3017 1.65815,2.01329 0.40035,0.59086 0.7055,1.24145 1.04971,1.86643 0.3456,0.65185 0.60933,1.3462 0.88685,2.02972 0.2323,0.53837 0.53998,1.0374 0.8092,1.55577 0.29172,0.50006 0.5591,1.01067 0.79706,1.53866 0.25163,0.46341 0.3957,0.96986 0.58657,1.45844 0.24116,0.40917 0.47716,0.83386 0.82851,1.15838 0.33791,0.38643 0.7315,0.70695 1.12453,1.03385 0.40167,0.39763 0.9163,0.61378 1.43487,0.81277 0.66467,0.18446 1.36128,0.19521 2.04629,0.21266 0.57917,-0.14236 1.15605,-0.28589 1.74387,-0.38934 0,0 -2.9675,2.24114 -2.9675,2.24114 l 0,0 c -0.59198,0.11781 -1.17672,0.2988 -1.7832,0.31748 -0.72114,-0.0298 -1.45698,-0.0534 -2.14161,-0.30668 -0.5415,-0.23336 -1.06346,-0.49378 -1.49331,-0.90857 -0.4058,-0.32948 -0.80017,-0.66865 -1.14937,-1.05948 -0.3636,-0.38229 -0.65247,-0.83491 -0.91242,-1.2925 -0.1831,-0.48543 -0.3156,-0.98943 -0.56732,-1.44683 -0.23003,-0.52353 -0.49364,-1.02747 -0.78787,-1.51767 -0.27595,-0.5288 -0.57725,-1.04463 -0.80907,-1.59623 -0.27186,-0.67023 -0.5243,-1.35455 -0.87204,-1.98881 -0.3347,-0.61493 -0.63056,-1.25462 -1.01942,-1.83736 -0.48081,-0.6987 -1.0533,-1.32546 -1.61516,-1.95848 -0.44278,-0.41802 -0.91491,-0.80283 -1.34238,-1.23519 -0.38043,-0.34593 -0.82206,-0.59468 -1.22054,-0.91889 -0.40475,-0.3793 -0.79975,-0.77239 -1.25928,-1.08688 -0.0265,-0.0165 -0.52338,-0.35067 -0.4938,-0.37478 2.43672,-1.98605 1.86932,-2.0395 3.35806,-2.27213 0.53025,-0.0808 1.07972,-0.0671 1.58815,-0.25613 0.49543,-0.21653 0.95695,-0.50508 1.44677,-0.73455 -0.96129,0.55883 -1.92285,1.11718 -2.88386,1.67649 -0.10388,0.0605 0.21013,-0.11687 0.31245,-0.17991 0.10587,-0.0652 0.20443,-0.14213 0.31186,-0.20477 1.1612,-0.67705 2.3218,-1.35539 3.49355,-2.01404 0.89175,-0.50126 -4.19046,2.40418 -2.65287,1.54295 0.21595,-0.13496 0.40016,-0.30612 0.61536,-0.44095 0.25011,-0.15669 0.50888,-0.28147 0.68774,-0.53166 0.41197,-0.46761 0.74695,-1.01773 1.04055,-1.5648 0.26294,-0.4605 0.51036,-0.94004 0.67503,-1.44438 0.25521,-0.67896 0.55798,-1.30576 0.42961,-2.05435 -0.0355,-0.63485 -0.10106,-1.27232 -0.35393,-1.86347 -0.27475,-0.57346 -0.55853,-1.14723 -0.93202,-1.66405 -0.4842,-0.58328 -1.01529,-1.13493 -1.60134,-1.61658 -0.52661,-0.43701 -1.10656,-0.79567 -1.73067,-1.07816 -0.80136,-0.36321 -1.64566,-0.64217 -2.49858,-0.85556 -1.02182,-0.18076 -2.03437,-0.29123 -3.07567,-0.1837 -1.51048,0.0541 -3.01854,0.15419 -4.52896,0.20602 0,0 3.0195,-2.19379 3.0195,-2.19379 z"
       inkscape:connector-curvature="0" />
    <path
       style="fill:#008080"
       d="m 166.62134,208.02249 c -2.545,-0.54536 -4.31334,-1.70337 -5.53899,-3.62725 -0.53329,-0.8371 -1.07758,-1.58872 -1.20954,-1.67027 -0.13195,-0.0816 -0.59943,0.19501 -1.03884,0.61459 -1.09198,1.0427 -5.38745,3.54852 -6.41247,3.74082 -1.57341,0.29517 -3.2274,-0.89881 -3.84737,-2.77734 -0.6094,-1.84648 0.65389,-3.24671 4.76992,-5.28695 1.97303,-0.97799 2.27731,-1.05457 4.19005,-1.05457 l 2.06252,0 0.42465,-3.78808 c 0.51763,-4.61756 0.51983,-5.52839 0.0214,-8.88496 -0.46311,-3.11886 -1.34119,-6.27534 -2.38785,-8.5837 -0.41593,-0.91731 -0.75623,-1.70059 -0.75623,-1.74063 0,-0.17721 2.82141,-1.66579 2.93741,-1.54979 0.0712,0.0712 0.5883,1.19145 1.14901,2.48936 1.26506,2.9283 2.18049,7.05056 2.37473,10.69358 0.16536,3.10148 -0.54953,9.66729 -1.29009,11.84855 l -0.41414,1.21984 0.87207,0.91568 c 0.47964,0.50362 1.18882,1.46783 1.57597,2.14269 1.25514,2.18792 3.43268,3.29957 7.07263,3.61062 2.10417,0.17982 4.05128,-0.18328 5.7621,-1.07453 2.0377,-1.06153 1.59206,-0.49916 -0.64262,0.81094 -2.9649,1.7382 -4.18333,2.10581 -6.89643,2.08068 -1.25007,-0.0116 -2.50013,-0.0697 -2.77792,-0.12928 z m -9.91785,-4.07884 c 1.32101,-1.41226 1.80297,-2.21982 1.61584,-2.70746 -0.24036,-0.62636 -2.09753,-1.38064 -3.39939,-1.38064 -2.16768,0 -2.83922,0.23794 -3.2159,1.13946 -0.78795,1.88583 0.82235,4.16384 2.94337,4.16384 0.77266,0 1.10083,-0.19396 2.05608,-1.2152 z"
       id="path3053"
       inkscape:connector-curvature="0" />
    <path
       style="fill:#000000"
       id="path3089"
       d="m 177.04334,172.65558 c 0.81539,0.16832 1.63332,0.31767 2.45423,0.44591 0.4514,0.10447 0.91635,0.16435 1.35792,0.31924 0.90006,0.31569 1.75999,0.84512 2.60271,1.29626 3.5946,1.95808 7.20868,3.88788 10.70574,6.04927 0.73493,0.45423 1.45615,0.93418 2.18424,1.40129 1.79517,1.19752 3.53929,2.49031 5.1223,4.00199 0.73413,0.70104 1.43192,1.44878 2.0417,2.27755 0.24679,0.33542 0.45683,0.69981 0.68525,1.04971 0.17141,0.33846 0.3689,0.66361 0.51424,1.01541 0.5511,1.33383 0.63351,2.84192 0.44808,4.25567 -0.0496,0.37843 -0.1402,0.74847 -0.2103,1.12268 -0.85444,2.99645 -2.87604,5.19477 -4.85165,7.37862 -1.38006,1.48207 -2.90245,2.79178 -4.45383,4.06151 -0.48821,0.39958 -1.13388,0.86102 -1.70967,1.12648 -0.25169,0.11612 -0.52207,0.18126 -0.7831,0.27187 -0.27614,0.012 -0.55216,0.0586 -0.82839,0.0359 -0.65504,-0.0539 -1.28322,-0.28265 -1.89177,-0.54062 -1.03506,-0.43875 -1.93474,-1.0222 -2.87289,-1.65802 -1.16604,-0.87922 -2.18709,-1.96219 -3.07608,-3.15544 -0.47821,-0.64188 -0.78486,-1.14677 -1.21599,-1.82064 -0.62245,-1.0393 -1.24394,-2.09714 -1.66615,-3.24768 0,0 1.49055,-1.1747 1.49055,-1.1747 l 0,0 c 0.33371,1.17448 0.93873,2.24332 1.54051,3.28425 0.45401,0.72282 0.68615,1.12334 1.1971,1.80954 0.87736,1.17831 1.88838,2.246 3.04023,3.11254 0.29961,0.20357 0.5927,0.41891 0.89881,0.61073 1.1115,0.69645 2.52797,1.41608 3.82712,1.46282 0.26674,0.01 0.53057,-0.0479 0.79584,-0.0719 0.249,-0.0927 0.50673,-0.16277 0.74702,-0.27808 0.2707,-0.12984 0.52955,-0.2873 0.78103,-0.45491 0.29593,-0.19722 0.56253,-0.44157 0.85892,-0.63803 0.11038,-0.0732 -0.39695,0.358 -0.29899,0.26689 1.68897,-1.57123 0.52867,-0.43772 2.22258,-2.14148 1.93808,-2.12687 3.95726,-4.31153 4.80969,-7.23166 0.0728,-0.3671 0.16651,-0.72968 0.21835,-1.1013 0.19115,-1.3706 0.11983,-2.86486 -0.38595,-4.17061 -0.13566,-0.35023 -0.32248,-0.67596 -0.48373,-1.01395 -0.21571,-0.35218 -0.41334,-0.71768 -0.64713,-1.05654 -1.83434,-2.65863 -4.40378,-4.60545 -6.94677,-6.39878 -0.72022,-0.47187 -1.43201,-0.95928 -2.16067,-1.41561 -3.51209,-2.19948 -7.17742,-4.10447 -10.89114,-5.85963 -1.31982,-0.59618 -2.63618,-1.23425 -4.06107,-1.44476 -0.83205,-0.1317 -1.66128,-0.29498 -2.49761,-0.38463 0,0 1.38873,-1.39707 1.38873,-1.39707 z"
       inkscape:connector-curvature="0" />
    <path
       style="fill:#000000"
       id="path3091"
       d="m 191.33432,176.45042 c 0.27047,0.75737 0.45481,1.52981 0.59003,2.31395 0.23009,1.40336 0.29879,2.82193 0.36202,4.2372 0.0228,1.17796 0.0835,2.35371 0.18093,3.52857 0.0724,1.33245 0.16389,2.66363 0.27802,3.99386 0.12761,1.35147 0.25332,2.70308 0.37039,4.0553 0.13775,1.21446 0.2829,2.42693 0.35441,3.64618 0.0142,1.0113 0.13798,2.02978 0.0443,3.04071 -0.0183,0.1981 -0.0537,0.39469 -0.0806,0.59204 -0.24923,1.27111 -0.95797,2.39762 -1.74283,3.46624 -0.42598,0.46167 -0.54043,0.62104 -1.04689,1.02499 -1.28112,1.02183 -3.03457,1.78383 -4.48608,2.52204 -0.77474,0.36695 -1.57276,0.702 -2.41177,0.93762 -0.0859,0.0172 -0.40445,0.0853 -0.49981,0.0877 -0.4485,0.0113 -0.97627,-0.22968 -1.38212,-0.37237 -0.65222,-0.23742 -1.33589,-0.45543 -1.89522,-0.84409 -0.29486,-0.22338 -0.48635,-0.52172 -0.65599,-0.82506 -0.15585,-0.22163 -0.2833,-0.45832 -0.38433,-0.70323 -0.0142,-0.044 -0.0283,-0.0879 -0.0425,-0.1319 0,0 1.98091,-0.94959 1.98091,-0.94959 l 0,0 c 0.0114,0.0395 0.0228,0.079 0.0343,0.11844 0.0934,0.23958 0.2241,0.46677 0.3681,0.68565 0.1511,0.27773 0.32341,0.55163 0.59176,0.7553 0.53739,0.37505 1.19508,0.5874 1.82298,0.81491 0.66555,0.21482 1.13039,0.3804 1.82149,0.15781 0.79829,-0.24669 1.5716,-0.54869 2.31009,-0.91416 -0.39,0.20165 -0.77531,0.41054 -1.16999,0.60495 -0.23761,0.11704 0.46959,-0.24299 0.69856,-0.37273 0.89761,-0.50859 1.74278,-1.08554 2.39262,-1.8409 0.78897,-1.03757 1.49851,-2.14196 1.77128,-3.38288 0.0295,-0.19292 0.0679,-0.38494 0.0884,-0.57877 0.10624,-1.00532 -0.0166,-2.02108 -0.0261,-3.02739 -0.0769,-1.21806 -0.22074,-2.42932 -0.35314,-3.64325 -0.0987,-1.35461 -0.22501,-2.70778 -0.35815,-4.06005 -0.10994,-1.32742 -0.21357,-2.655 -0.30055,-3.98378 -0.0981,-1.1804 -0.17305,-2.36136 -0.16223,-3.54565 -0.0417,-1.40601 -0.10987,-2.81563 -0.37343,-4.20528 -0.14451,-0.76406 -0.33418,-1.52084 -0.66929,-2.23997 0,0 1.98035,-0.96245 1.98035,-0.96245 z"
       inkscape:connector-curvature="0" />
    <path
       style="fill:#ff0000"
       id="path3095"
       d="m 204.27603,177.02245 c -1.47274,0.82334 1.59145,-0.93224 2.39861,-1.37808 0.19984,-0.11039 -0.39065,0.23741 -0.57523,0.37176 -0.76167,0.55438 -1.34383,1.22796 -1.94022,1.94962 -1.56113,2.06155 -2.35518,4.53389 -3.11333,6.97167 -0.7372,2.40827 -1.27359,4.86693 -1.60387,7.36226 -0.1341,1.45384 -0.28091,2.92024 -0.22492,4.38285 0.0349,0.91082 0.0983,1.19374 0.22572,2.08995 0.32956,1.68303 0.91626,3.27674 1.90246,4.68258 1.0582,1.27518 2.63463,1.65281 4.19069,1.95425 1.38086,0.1675 2.78582,0.3961 4.18144,0.26934 0.7937,-0.0721 0.99396,-0.1642 1.7483,-0.37512 0.26643,-0.10493 0.53717,-0.19953 0.7993,-0.31479 0.26249,-0.11542 1.01989,-0.52319 0.77337,-0.37672 -0.7637,0.45375 -1.52066,0.92608 -2.32665,1.2996 -0.29121,0.13495 0.5242,-0.37177 0.76997,-0.5782 0.63055,-0.5296 0.85688,-0.83311 1.41317,-1.45894 1.29403,-1.70601 2.32543,-3.61767 3.00214,-5.65177 0.13347,-0.40119 0.23742,-0.81159 0.35613,-1.21739 0.4123,-1.91196 0.76344,-3.89861 0.6335,-5.86477 -0.0219,-0.33115 -0.0774,-0.65922 -0.11611,-0.98883 -0.18326,-1.62693 -0.75955,-3.14639 -1.44861,-4.61718 -0.5184,-1.01048 -1.03048,-2.02412 -1.5134,-3.05207 -0.31367,-0.63232 -0.55889,-1.28108 -0.7821,-1.95 -0.22745,-0.64457 -0.53045,-1.25892 -0.80957,-1.88168 0,0 3.26355,-1.82504 3.26355,-1.82504 l 0,0 c 0.23596,0.6496 0.56289,1.26439 0.79774,1.91508 0.22143,0.65703 0.47361,1.28922 0.75453,1.92269 0.45142,1.04178 0.94085,2.06666 1.45387,3.07953 0.70931,1.50887 1.27357,3.07662 1.45423,4.74582 0.0412,0.34232 0.10152,0.68288 0.12348,1.02697 0.051,0.79849 -0.003,1.47088 -0.0684,2.26973 -0.10229,1.2472 -0.25258,2.49219 -0.55791,3.70835 -0.11854,0.41472 -0.2229,0.83376 -0.35562,1.24417 -0.66338,2.05151 -1.66159,3.98463 -2.90144,5.74563 -0.54958,0.66509 -0.7379,0.94331 -1.36567,1.51542 -1.76221,1.60596 -3.97449,2.71749 -6.21487,3.49687 -0.28693,0.0654 -0.57045,0.14811 -0.86079,0.19613 -1.70328,0.28168 -3.44297,-0.019 -5.13314,-0.24005 -1.65639,-0.32992 -3.31534,-0.75682 -4.40664,-2.14832 -0.98148,-1.46236 -1.56726,-3.14302 -1.91664,-4.86426 -0.11826,-0.81768 -0.20888,-1.30546 -0.24714,-2.13508 -0.0682,-1.47935 0.10577,-2.96108 0.21774,-4.43313 0.33807,-2.51777 0.88691,-5.00027 1.61804,-7.43404 0.74478,-2.45378 1.51558,-4.94525 3.00533,-7.06657 0.21218,-0.28216 0.41026,-0.5755 0.63654,-0.84648 1.49166,-1.78633 3.69372,-2.7392 5.68805,-3.84201 0,0 -2.92566,2.34025 -2.92566,2.34025 z"
       inkscape:connector-curvature="0" />
    <path
       style="fill:#ff0000"
       id="path3097"
       d="m 212.24579,179.78921 c -0.70531,-0.0128 -1.38948,0.3041 -1.99375,0.64759 5.28762,-3.10767 2.82402,-1.87349 1.82855,-0.65626 -0.58461,0.76046 -0.96011,1.63759 -1.31033,2.52223 -0.39098,0.9481 -0.69521,1.93086 -0.9409,2.92592 -0.22791,1.05152 -0.23574,2.13298 -0.25819,3.20383 -0.0212,1.59779 -0.0423,3.19595 -0.003,4.79351 0.0931,2.47736 1.10687,4.72539 2.18316,6.91185 1.09271,2.02067 2.49537,3.88399 4.16392,5.46782 0.29925,0.28406 0.62128,0.54312 0.93192,0.81469 1.63818,1.34133 3.4294,2.47795 5.26239,3.53123 0.52794,0.30994 1.10247,0.49837 1.68539,0.669 0,0 -3.04388,2.06822 -3.04388,2.06822 l 0,0 c -0.58241,-0.20908 -1.15755,-0.43342 -1.68174,-0.77004 -1.79835,-1.12491 -3.59652,-2.26488 -5.22184,-3.63469 -0.31415,-0.28063 -0.64011,-0.54857 -0.94245,-0.84189 -1.6751,-1.62509 -3.06348,-3.53859 -4.18344,-5.57971 -1.1167,-2.21176 -2.20505,-4.47489 -2.35604,-6.99083 -0.0697,-1.5931 -0.0434,-3.18819 -0.0571,-4.78254 0.007,-1.0875 -0.002,-2.18588 0.18994,-3.25989 0.23127,-1.01572 0.55925,-2.01203 0.93932,-2.98122 0.34196,-0.89825 0.67826,-1.79824 1.22836,-2.59592 1.10953,-1.61692 2.6344,-2.08334 4.49022,-3.13911 0.69305,-0.30311 1.40649,-0.60572 2.17744,-0.43873 0,0 -3.08816,2.11494 -3.08816,2.11494 z"
       inkscape:connector-curvature="0" />
    <path
       style="fill:#ff0000"
       id="path3099"
       d="m 209.23851,178.01639 c -1.26454,-0.28411 -2.57102,-0.32568 -3.86169,-0.37997 -0.97278,0.0302 -2.12102,-0.22936 -3.00636,0.28874 0,0 2.92897,-2.30993 2.92897,-2.30993 l 0,0 c 0.98416,-0.26355 2.01984,-0.11309 3.02398,-0.0994 1.34215,0.0648 2.69971,0.11696 4.01733,0.3957 0,0 -3.10223,2.10483 -3.10223,2.10483 z"
       inkscape:connector-curvature="0" />
    <rect
       style="fill:#b3b3b3"
       id="rect3191"
       width="80.559662"
       height="18.182745"
       x="65.912453"
       y="146.76042" />
    <path
       style="fill:#b3b3b3"
       d="m 189.75407,207.67633 c -1.07594,-0.53827 -2.4237,-1.49881 -3.28354,-2.34016 -1.46042,-1.42902 -3.65974,-4.53733 -4.29416,-6.06897 -0.30778,-0.74303 -0.29017,-0.86296 0.19842,-1.35155 0.29489,-0.29489 0.57319,-0.48565 0.61846,-0.42392 0.0453,0.0617 0.49777,0.96455 1.00557,2.00627 0.50779,1.04172 1.46828,2.55055 2.13442,3.35295 1.3521,1.62869 3.30122,3.27336 3.71712,3.1365 0.14958,-0.0492 0.64129,-0.80074 1.0927,-1.67004 0.99861,-1.92304 1.01195,-2.34709 0.31953,-10.15378 -0.27568,-3.10807 -0.60972,-7.57459 -0.74233,-9.92559 -0.20721,-3.67358 -0.30445,-4.31268 -0.69165,-4.54569 -0.2478,-0.14912 -2.27183,-1.21336 -4.49784,-2.36498 -3.8143,-1.97332 -6.04682,-2.83571 -8.30559,-3.20833 l -0.9753,-0.16089 0.54475,-0.57986 c 0.48791,-0.51935 0.66874,-0.55734 1.73292,-0.36397 1.90669,0.34645 3.40277,0.89897 5.25984,1.94254 4.78569,2.68928 6.2399,3.40545 6.08263,2.99561 -0.11589,-0.30199 0.0599,-0.53589 0.62077,-0.82592 0.93222,-0.48206 1.11919,-0.29799 1.36792,1.3467 0.14914,0.98618 0.28669,1.14698 1.712,2.00138 0.85241,0.51098 2.37458,1.49882 3.38262,2.19521 1.52018,1.05019 1.80558,1.35493 1.67326,1.78668 -0.23698,0.77325 -0.23527,0.77346 -1.40877,-0.1797 -1.36905,-1.11201 -4.75072,-3.29649 -4.88902,-3.15819 -0.14879,0.14879 0.34268,7.96441 0.79042,12.56958 0.74732,7.68644 0.51359,9.3566 -1.63573,11.68833 l -1.0304,1.11786 1.06447,0.47928 c 0.6633,0.29865 1.61578,0.47591 2.52732,0.47035 l 1.46285,-0.009 -0.95121,0.57585 c -1.3466,0.8152 -2.46691,0.73375 -4.60245,-0.33461 l 0,-2e-5 z"
       id="path3211"
       inkscape:connector-curvature="0" />
    <path
       style="fill:#b3b3b3"
       d=""
       id="path3213"
       inkscape:connector-curvature="0" />
    <path
       style="fill:#b3b3b3"
       d=""
       id="path3215"
       inkscape:connector-curvature="0" />
    <path
       style="fill:#b3b3b3"
       d="m 218.4956,211.32963 c -2.53399,-1.53907 -3.71022,-2.42236 -5.44151,-4.08628 l -1.31189,-1.26084 -1.5923,0.73522 c -1.47153,0.67946 -1.81257,0.73457 -4.49649,0.72655 -5.72824,-0.0171 -7.54455,-1.24247 -8.97105,-6.05224 -1.04262,-3.51544 -0.22951,-10.45021 1.98562,-16.93464 1.39898,-4.09531 2.83792,-6.16078 5.50687,-7.90468 l 1.5328,-1.00153 2.67242,0.11837 c 3.47273,0.15381 3.71252,0.29955 2.14635,1.30456 -1.2242,0.78557 -1.24934,0.78987 -3.74722,0.64153 l -2.51475,-0.14935 -0.83775,1.3966 c -2.45405,4.09108 -4.58012,13.00252 -4.26032,17.85718 0.27182,4.1263 1.70918,7.16672 3.83201,8.10575 1.84801,0.81746 7.47922,1.29637 8.08777,0.68782 0.0715,-0.0715 -0.39979,-0.9145 -1.04734,-1.87328 -1.22213,-1.80953 -2.40838,-4.20285 -3.05432,-6.16227 -0.23839,-0.72313 -0.42134,-2.61485 -0.50275,-5.19842 -0.11138,-3.53446 -0.0609,-4.32687 0.38889,-6.10557 1.08677,-4.2976 2.30677,-5.8381 6.2974,-7.95178 l 2.26351,-1.19889 0.82219,2.08277 c 0.45221,1.14553 1.14915,2.7313 1.54877,3.52393 1.52913,3.03303 2.05981,5.13648 2.02826,8.03946 -0.0493,4.53368 -1.39651,8.46516 -4.11731,12.015 l -1.2685,1.65501 0.59185,0.6394 c 0.94888,1.02511 4.21609,3.43434 6.33559,4.67186 l 1.95566,1.14185 -1.3655,0.90664 -1.3655,0.90664 -2.10146,-1.27637 0,0 z m -3.55202,-10.60551 c 0.73732,-1.46767 1.24079,-2.94113 1.57836,-4.61922 0.84311,-4.19115 0.61826,-6.64751 -0.92443,-10.0993 -0.50114,-1.12128 -1.369,-3.08059 -1.92859,-4.35401 -0.89882,-2.04538 -1.06919,-2.28301 -1.46122,-2.03819 -0.4906,0.30639 -1.481,2.33783 -2.18405,4.47978 -0.67998,2.07167 -0.66577,10.37442 0.0212,12.37437 0.91336,2.65906 3.09464,6.63068 3.56352,6.48835 0.1389,-0.0422 0.73975,-1.04646 1.33522,-2.23178 l 0,0 z"
       id="path3217"
       inkscape:connector-curvature="0" />
    <path
       style="fill:#008080"
       d="m 201.86534,200.64942 c 0,-0.10426 0.21804,-0.49578 0.48454,-0.87004 0.84308,-1.18399 1.53594,-3.67547 1.5333,-5.51358 -0.003,-2.00284 -0.67308,-3.68078 -2.27249,-5.68956 -1.03777,-1.30338 -1.10387,-1.49713 -0.78647,-2.30504 0.16058,-0.40873 0.3662,-0.27032 1.50065,1.01015 2.04019,2.30281 2.69806,3.83736 2.69309,6.28201 -0.004,1.86758 -0.0859,2.18528 -1.08636,4.20271 -0.93778,1.89103 -2.06626,3.46577 -2.06626,2.88335 z"
       id="path3219"
       inkscape:connector-curvature="0" />
    <path
       style="fill:#008080"
       d="m 189.79785,207.4457 c -2.2242,-1.11272 -4.06607,-2.90448 -6.07852,-5.91312 -1.59062,-2.378 -1.81063,-3.02075 -1.20582,-3.5227 0.27917,-0.23169 0.58455,0.13969 1.57836,1.91954 1.23993,2.22062 3.79943,5.22865 4.99216,5.86698 0.83263,0.44561 1.19441,0.15569 2.04233,-1.63665 0.52492,-1.10959 0.63635,-1.71804 0.63122,-3.44655 -0.008,-2.73657 -1.38854,-20.51396 -1.62227,-20.89214 -0.22744,-0.36801 -7.83986,-4.19134 -9.86636,-4.95538 -0.83579,-0.31511 -2.06818,-0.65518 -2.73866,-0.75573 -1.2047,-0.18065 -1.2133,-0.18854 -0.73117,-0.67067 0.4641,-0.4641 0.56765,-0.46936 2.12571,-0.10802 1.78285,0.41347 3.93993,1.37348 8.03342,3.57527 1.89974,1.02183 2.67569,1.32723 2.75575,1.08462 0.13836,-0.41924 0.8112,-0.95028 1.21762,-0.96101 0.16733,-0.004 0.38116,0.41813 0.47518,0.93899 0.2709,1.50068 0.45539,1.69807 3.35291,3.58741 2.91932,1.90354 3.71717,2.59943 3.45908,3.01703 -0.0938,0.15178 -1.02225,-0.35128 -2.23445,-1.21068 -1.97954,-1.40342 -3.48678,-2.30017 -3.86608,-2.30017 -0.21376,0 0.0181,4.4067 0.65816,12.50991 0.33728,4.26992 0.41325,6.53876 0.25617,7.65011 -0.23592,1.669 -1.04031,3.3004 -2.12863,4.31706 -0.36046,0.33673 -0.65538,0.74563 -0.65538,0.90866 0,0.37896 2.30125,1.12801 3.5014,1.13971 l 0.91802,0.009 -0.63134,0.36091 c -1.05211,0.60144 -2.31846,0.44838 -4.23881,-0.51233 z"
       id="path3221"
       inkscape:connector-curvature="0" />
    <path
       style="fill:#008080;stroke-width:0.1;stroke-miterlimit:4;stroke-dasharray:none"
       d="m 217.76193,210.64871 c -1.45109,-0.9508 -3.39352,-2.42731 -4.31652,-3.28113 l -1.67819,-1.5524 -1.47854,0.68866 c -1.16906,0.54452 -1.94185,0.708 -3.69202,0.78102 -2.54735,0.10629 -5.15176,-0.28097 -6.4937,-0.96558 -2.49748,-1.27411 -4.02156,-5.62372 -3.67323,-10.48308 0.22629,-3.15671 1.20762,-7.86972 2.29043,-11.00015 1.44318,-4.17227 2.75119,-6.13044 5.32382,-7.97015 1.49362,-1.0681 1.61189,-1.10638 3.40927,-1.1037 1.02408,0.002 2.28951,0.0734 2.81207,0.15981 0.78872,0.13036 0.89908,0.21851 0.64973,0.51895 -0.74496,0.89763 -1.74999,1.14058 -4.34084,1.04934 l -2.53829,-0.0894 -1.09289,2.14657 c -1.27332,2.50095 -2.33952,5.68722 -3.13687,9.37432 -0.82909,3.83388 -0.83374,9.49618 -0.01,11.88246 0.82204,2.38065 2.16258,3.83995 4.03374,4.39112 1.78367,0.5254 6.97533,0.81254 7.23035,0.3999 0.0964,-0.15591 -0.46451,-1.35545 -1.24637,-2.66564 -0.78186,-1.31019 -1.77468,-3.27174 -2.20627,-4.359 -0.75168,-1.89365 -0.78923,-2.16444 -0.89216,-6.435 -0.0983,-4.07708 -0.0583,-4.62754 0.46763,-6.43972 1.09067,-3.75814 2.04546,-4.98414 5.42,-6.95953 2.71006,-1.58641 2.81697,-1.61857 3.03127,-0.91181 0.0978,0.32257 0.89751,2.23429 1.77711,4.24828 1.95015,4.46514 2.19441,5.4565 2.17779,8.83884 -0.0216,4.40178 -1.22559,7.8723 -4.07379,11.74302 l -1.30078,1.76777 1.18745,1.08615 c 0.6531,0.59738 2.56218,2.00311 4.2424,3.12383 1.68023,1.12072 3.08315,2.1093 3.1176,2.19684 0.0569,0.14451 -1.9822,1.54813 -2.24901,1.54813 -0.0622,0 -1.30035,-0.77793 -2.75144,-1.72874 l 0,0 z m -3.28133,-8.81473 c 0.4108,-0.65975 1.11273,-2.27916 1.55985,-3.59867 0.75053,-2.21492 0.8144,-2.66085 0.83192,-5.80837 0.0217,-3.89931 -0.10239,-4.35649 -2.6565,-9.78586 -0.93986,-1.99791 -1.59379,-3.09359 -1.84633,-3.09359 -0.51588,0 -0.95524,0.71591 -1.93731,3.15673 -0.7796,1.93758 -0.8178,2.19747 -0.93289,6.347 -0.14397,5.19066 0.12408,7.02966 1.43073,9.81544 1.12496,2.39843 2.2092,4.16688 2.55473,4.16688 0.1369,0 0.58501,-0.5398 0.9958,-1.19956 z"
       id="path3223"
       inkscape:connector-curvature="0" />
  </g>
</svg>
